<svg width="10" height="17" viewBox="0 0 10 17" fill="none" xmlns="http://www.w3.org/2000/svg">
<path d="M9.72885 7.83664L2.16365 0.271582C1.98868 0.0964705 1.75511 0 1.50605 0C1.257 0 1.02342 0.0964705 0.84845 0.271582L0.291326 0.828568C-0.0711979 1.19151 -0.0711979 1.78139 0.291326 2.14377L6.644 8.49645L0.284278 14.8562C0.109304 15.0313 0.0126953 15.2647 0.0126953 15.5136C0.0126953 15.7628 0.109304 15.9963 0.284278 16.1715L0.841401 16.7284C1.01651 16.9035 1.24995 16.9999 1.499 16.9999C1.74806 16.9999 1.98163 16.9035 2.15661 16.7284L9.72885 9.1564C9.90423 8.98074 10.0006 8.74619 10 8.49686C10.0006 8.24657 9.90423 8.01216 9.72885 7.83664Z" fill="white"/>
</svg>
