<svg width="132" height="136" viewBox="0 0 132 136" fill="none" xmlns="http://www.w3.org/2000/svg">
<path d="M69.0413 30.4679C67.6029 44.5129 49.1844 53.6767 34.5724 53.6767C20.029 53.6778 1.55964 44.6004 0.104594 30.4679C-1.44399 15.4224 16.8525 0.121365 34.3083 0.000726669C52.0318 -0.122277 70.584 15.3916 69.0413 30.4679Z" fill="#FF6F59"/>
<path d="M131.835 33.5941C129.892 48.8821 111.413 57.639 97.367 57.6355C82.7408 57.6308 64.6539 48.1252 62.8993 33.5941C60.9091 17.1198 80.4842 -1.08597 99.5455 0.05064C116.489 1.05951 133.892 17.4025 131.835 33.5941Z" fill="#FF6F59"/>
<path d="M64.4169 136C61.2428 117.316 54.4967 104.896 48.834 96.9495C30.5849 71.3351 4.51118 62.5154 0.500023 36.131C-0.0576084 32.4657 -0.0315619 29.4533 0.0335543 27.7939C44.0213 28.7425 88.0103 29.6899 131.998 30.6384C131.968 32.4693 131.822 35.4096 131.175 38.9353C126.373 65.1044 103.154 74.778 83.8298 99.1919C78.051 106.494 70.217 118.311 64.4169 136Z" fill="#FF6F59"/>
</svg>
