<svg width="11" height="14" viewBox="0 0 11 14" fill="none" xmlns="http://www.w3.org/2000/svg">
<path fill-rule="evenodd" clip-rule="evenodd" d="M3.70914 0.0368554C3.52301 0.0739061 3.32747 0.151152 2.70403 0.433914C2.47664 0.537054 2.36519 0.601668 2.37101 0.626961C2.37585 0.647851 2.57117 1.20181 2.80504 1.85792L3.23026 3.0509L3.47986 2.9328C3.78652 2.78772 4.14934 2.6647 4.50164 2.5863C4.8646 2.50556 5.73933 2.49845 6.09466 2.57334C6.46022 2.6504 6.84993 2.77834 7.15093 2.92014L7.42789 3.05063L7.85309 1.85778C8.08693 1.20175 8.28222 0.647578 8.28706 0.626332C8.29723 0.581515 7.31078 0.12884 7.05667 0.0617108C6.66765 -0.0410196 6.23442 -0.0141954 5.84026 0.137043C5.46261 0.281937 5.18124 0.283961 4.83857 0.144262C4.48813 0.0013632 4.08172 -0.0372735 3.70914 0.0368554ZM4.75747 3.37506C3.74892 3.54407 2.70901 4.23538 1.85397 5.30525C0.40103 7.12326 -0.337061 9.79138 0.149002 11.4687C0.550518 12.8542 1.69748 13.6507 3.64739 13.8982C4.89785 14.0569 6.53637 14.0167 7.62592 13.8005C8.00638 13.725 8.5733 13.537 8.88001 13.3846C9.88763 12.8839 10.4703 12.0567 10.6201 10.9143C10.8304 9.31016 10.1584 7.11984 8.96256 5.51148C8.07107 4.31249 6.9852 3.56012 5.87794 3.37424C5.56687 3.32204 5.07173 3.3224 4.75747 3.37506ZM5.57513 6.40404V6.66071L5.70501 6.68015C5.88906 6.70766 6.23625 6.82054 6.48415 6.93344L6.6959 7.02985L6.50083 7.40211C6.39353 7.60683 6.29547 7.78571 6.28295 7.79958C6.26942 7.81462 6.20729 7.79641 6.12958 7.75468C5.98542 7.67724 5.62235 7.54192 5.55872 7.54192C5.52561 7.54192 5.51968 7.58266 5.52618 7.76512L5.53411 7.98833L5.79388 8.0755C6.24205 8.22587 6.47551 8.36576 6.61384 8.56679C6.80475 8.84427 6.83125 9.29689 6.67583 9.62578C6.50572 9.98568 6.19936 10.1812 5.67767 10.2627L5.57513 10.2788V10.5783V10.8779H5.37005H5.16497V10.5669V10.256L5.00488 10.2379C4.7555 10.2097 4.35912 10.0943 4.10909 9.97712L3.88137 9.87043L4.01596 9.58294C4.18809 9.21522 4.28789 9.01848 4.30225 9.01848C4.30848 9.01848 4.4221 9.07278 4.55472 9.13915C4.7788 9.25128 5.12054 9.37395 5.20886 9.37395C5.23826 9.37395 5.24701 9.32459 5.24701 9.15881V8.9437L5.02142 8.86987C4.53757 8.71155 4.25 8.5208 4.12077 8.27241C4.02947 8.09694 4.01807 7.6977 4.09764 7.46216C4.23474 7.05627 4.554 6.78217 4.99599 6.69087L5.16497 6.65598V6.40168V6.14739H5.37005H5.57513V6.40404ZM5.13763 7.54996C5.08226 7.57798 5.06927 7.60486 5.06927 7.69157C5.06927 7.78347 5.08185 7.80598 5.15814 7.85052L5.24701 7.90242V7.7085C5.24701 7.60183 5.23776 7.51477 5.2265 7.51498C5.21523 7.5152 5.17523 7.53095 5.13763 7.54996ZM5.52044 9.21976C5.52044 9.39109 5.52148 9.3935 5.5896 9.38048C5.67447 9.36427 5.73796 9.27948 5.71915 9.20745C5.70507 9.15364 5.58831 9.04582 5.5441 9.04582C5.53108 9.04582 5.52044 9.12411 5.52044 9.21976Z" fill="#7AF5A7"/>
</svg>
