<svg width="28" height="28" viewBox="0 0 28 28" fill="none" xmlns="http://www.w3.org/2000/svg">
<path d="M0.719025 17.9057C1.44363 20.0405 2.68942 21.9607 4.34351 23.4925C5.99761 25.0242 8.00774 26.1191 10.1918 26.6779L13.5503 13.5503L0.719025 17.9057Z" fill="#45496A"/>
<path d="M16.2304 0.267673C19.0699 0.840605 21.6511 2.30845 23.5953 4.45586C25.5396 6.60328 26.7444 9.31723 27.0332 12.1996L13.5503 13.5503L16.2304 0.267673Z" fill="#45496A"/>
<path d="M7.93196 22.6495L7.06979 22.3877V24.177L7.93196 24.7443L8.83723 24.177V22.3877L7.93196 22.6495Z" fill="#FF6F59"/>
<path d="M22.093 4.12402L22.4237 5.14175H23.4938L22.628 5.77073L22.9587 6.78846L22.093 6.15947L21.2273 6.78846L21.5579 5.77073L20.6922 5.14175H21.7623L22.093 4.12402Z" fill="#7AF5A7"/>
<path fill-rule="evenodd" clip-rule="evenodd" d="M24.181 8.84361C24.1501 8.84985 24.1177 8.86286 24.0143 8.91047C23.9766 8.92784 23.9581 8.93872 23.9591 8.94298C23.9599 8.94649 23.9923 9.03978 24.0311 9.15026L24.1016 9.35115L24.143 9.33126C24.1938 9.30683 24.254 9.28611 24.3124 9.27291C24.3726 9.25932 24.5176 9.25812 24.5766 9.27073C24.6372 9.28371 24.7018 9.30525 24.7517 9.32913L24.7977 9.3511L24.8682 9.15024C24.9069 9.03977 24.9393 8.94645 24.9401 8.94287C24.9418 8.93532 24.7782 8.8591 24.7361 8.84779C24.6716 8.8305 24.5997 8.83501 24.5344 8.86048C24.4718 8.88488 24.4251 8.88522 24.3683 8.86169C24.3102 8.83763 24.2428 8.83113 24.181 8.84361ZM24.3548 9.40573C24.1876 9.43419 24.0151 9.5506 23.8733 9.73076C23.6324 10.0369 23.51 10.4862 23.5906 10.7686C23.6572 11.0019 23.8474 11.1361 24.1707 11.1777C24.3781 11.2045 24.6498 11.1977 24.8305 11.1613C24.8936 11.1486 24.9876 11.1169 25.0385 11.0912C25.2055 11.0069 25.3022 10.8676 25.327 10.6753C25.3619 10.4052 25.2505 10.0363 25.0521 9.76549C24.9043 9.56359 24.7242 9.4369 24.5406 9.40559C24.489 9.3968 24.4069 9.39686 24.3548 9.40573ZM24.4904 9.91579V9.95901L24.512 9.96228C24.5425 9.96691 24.6 9.98592 24.6412 10.0049L24.6763 10.0212L24.6439 10.0839C24.6261 10.1183 24.6099 10.1484 24.6078 10.1508C24.6055 10.1533 24.5952 10.1502 24.5824 10.1432C24.5585 10.1302 24.4982 10.1074 24.4877 10.1074C24.4822 10.1074 24.4812 10.1143 24.4823 10.145L24.4836 10.1826L24.5267 10.1972C24.601 10.2226 24.6397 10.2461 24.6627 10.28C24.6943 10.3267 24.6987 10.4029 24.6729 10.4583C24.6447 10.5189 24.5939 10.5518 24.5074 10.5656L24.4904 10.5683V10.6187V10.6691H24.4564H24.4224V10.6168V10.5644L24.3959 10.5614C24.3545 10.5566 24.2888 10.5372 24.2473 10.5175L24.2095 10.4995L24.2319 10.4511C24.2604 10.3892 24.277 10.356 24.2793 10.356C24.2804 10.356 24.2992 10.3652 24.3212 10.3764C24.3584 10.3952 24.415 10.4159 24.4297 10.4159C24.4346 10.4159 24.436 10.4076 24.436 10.3797V10.3434L24.3986 10.331C24.3184 10.3044 24.2707 10.2722 24.2492 10.2304C24.2341 10.2009 24.2322 10.1336 24.2454 10.094C24.2681 10.0256 24.3211 9.97946 24.3944 9.96409L24.4224 9.95821V9.91539V9.87257H24.4564H24.4904V9.91579ZM24.4179 10.1087C24.4087 10.1135 24.4065 10.118 24.4065 10.1326C24.4065 10.1481 24.4086 10.1519 24.4213 10.1594L24.436 10.1681V10.1354C24.436 10.1175 24.4345 10.1028 24.4326 10.1029C24.4307 10.1029 24.4241 10.1055 24.4179 10.1087ZM24.4813 10.3899C24.4813 10.4188 24.4815 10.4192 24.4928 10.417C24.5069 10.4143 24.5174 10.4 24.5143 10.3879C24.512 10.3788 24.4926 10.3606 24.4853 10.3606C24.4831 10.3606 24.4813 10.3738 24.4813 10.3899Z" fill="#7AF5A7"/>
<path d="M18.0312 2.13013L17.7823 1.90353L18.8527 1.76758L18.7282 2.69661L18.4793 2.51534L18.1557 2.80991L18.554 3.19512L17.8818 3.78427L18.1557 4.01086L17.0853 4.12416L17.2346 3.19512L17.4587 3.39906L17.8321 3.10448L17.384 2.69661L18.0312 2.13013Z" fill="#7AF5A7"/>
<!-- <path d="M17.8321 3.10448L17.384 2.69661L18.0312 2.13013L17.7823 1.90353L18.8527 1.76758L18.7282 2.69661L18.4793 2.51534L18.1557 2.80991M17.8321 3.10448L18.1557 2.80991M17.8321 3.10448L17.4587 3.39906L17.2346 3.19512L17.0853 4.12416L18.1557 4.01086L17.8818 3.78427L18.554 3.19512L18.1557 2.80991" stroke="#7AF5A7" stroke-width="0.2"/> -->
<path d="M4.82276 19.1909C4.76747 19.1305 4.70172 19.0825 4.62929 19.0497C4.55686 19.017 4.47918 19.0001 4.40071 19C4.25229 19 4.10929 19.0605 4.00003 19.1696C3.89077 19.0605 3.74776 19 3.59934 19C3.52078 19.0001 3.44301 19.017 3.37051 19.0499C3.29801 19.0827 3.23221 19.1308 3.17689 19.1913C2.94095 19.4485 2.94105 19.8507 3.17709 20.1068L4.00003 21L4.82296 20.1068C5.059 19.8507 5.0591 19.4485 4.82276 19.1909V19.1909Z" fill="#FF6F59"/>
</svg>
