<svg width="22" height="22" viewBox="0 0 22 22" fill="none" xmlns="http://www.w3.org/2000/svg">
<path d="M12.6044 0.207873C14.8096 0.652808 16.8141 1.79272 18.324 3.46039C19.8338 5.12806 20.7695 7.23569 20.9938 9.47411L14.1929 10.1554C14.1143 9.37091 13.7864 8.63222 13.2572 8.04773C12.728 7.46324 12.0254 7.06372 11.2525 6.90778L12.6044 0.207873Z" fill="#45496A"/>
<path d="M17.1573 3.20264L17.4141 3.99299H18.2451L17.5728 4.48146L17.8296 5.27182L17.1573 4.78335L16.485 5.27182L16.7418 4.48146L16.0694 3.99299H16.9005L17.157 3 3.20264Z" fill="#7AF5A7"/>
<path fill-rule="evenodd" clip-rule="evenodd" d="M18.7787 6.86761C18.7548 6.87246 18.7296 6.88256 18.6493 6.91954C18.62 6.93302 18.6057 6.94147 18.6064 6.94478C18.607 6.94751 18.6322 7.01996 18.6623 7.10576L18.7171 7.26176L18.7492 7.24632C18.7887 7.22735 18.8354 7.21126 18.8808 7.20101C18.9275 7.19045 19.0402 7.18952 19.0859 7.19931C19.133 7.20939 19.1832 7.22612 19.222 7.24466L19.2576 7.26173L19.3124 7.10574C19.3425 7.01995 19.3676 6.94748 19.3683 6.9447C19.3696 6.93884 19.2425 6.87964 19.2098 6.87086C19.1597 6.85743 19.1039 6.86094 19.0532 6.88071C19.0045 6.89966 18.9683 6.89993 18.9242 6.88166C18.879 6.86297 18.8267 6.85792 18.7787 6.86761ZM18.9137 7.30415C18.7838 7.32626 18.6499 7.41666 18.5398 7.55657C18.3527 7.79431 18.2577 8.14322 18.3203 8.36257C18.372 8.54376 18.5197 8.64792 18.7708 8.68028C18.9318 8.70104 19.1428 8.69577 19.2831 8.6675C19.3321 8.65763 19.4051 8.63304 19.4446 8.61311C19.5744 8.54764 19.6494 8.43946 19.6687 8.29008C19.6958 8.08029 19.6093 7.79386 19.4553 7.58354C19.3405 7.42674 19.2006 7.32836 19.058 7.30405C19.018 7.29722 18.9542 7.29727 18.9137 7.30415ZM19.019 7.70026V7.73382L19.0358 7.73637C19.0595 7.73996 19.1042 7.75472 19.1361 7.76949L19.1634 7.7821L19.1382 7.83078C19.1244 7.85755 19.1118 7.88094 19.1102 7.88275C19.1084 7.88472 19.1004 7.88234 19.0904 7.87688C19.0719 7.86676 19.0251 7.84906 19.0169 7.84906C19.0127 7.84906 19.0119 7.85439 19.0127 7.87825L19.0137 7.90744L19.0472 7.91884C19.1049 7.9385 19.135 7.95679 19.1528 7.98308C19.1774 8.01937 19.1808 8.07856 19.1608 8.12157C19.1389 8.16863 19.0994 8.1942 19.0322 8.20486L19.019 8.20696V8.24613V8.2853H18.9926H18.9662V8.24464V8.20398L18.9456 8.20162C18.9135 8.19793 18.8624 8.18284 18.8302 8.16752L18.8009 8.15356L18.8182 8.11597C18.8404 8.06788 18.8533 8.04215 18.8551 8.04215C18.8559 8.04215 18.8705 8.04925 18.8876 8.05793C18.9165 8.0726 18.9605 8.08864 18.9719 8.08864C18.9756 8.08864 18.9768 8.08218 18.9768 8.0605V8.03237L18.9477 8.02272C18.8854 8.00201 18.8484 7.97707 18.8317 7.94459C18.82 7.92164 18.8185 7.86943 18.8288 7.83863C18.8464 7.78555 18.8875 7.74971 18.9444 7.73777L18.9662 7.7332V7.69995V7.6667H18.9926H19.019V7.70026ZM18.9627 7.85011C18.9556 7.85378 18.9539 7.85729 18.9539 7.86863C18.9539 7.88065 18.9555 7.88359 18.9653 7.88942L18.9768 7.8962V7.87084C18.9768 7.85689 18.9756 7.84551 18.9741 7.84554C18.9727 7.84557 18.9675 7.84763 18.9627 7.85011ZM19.012 8.06847C19.012 8.09088 19.0121 8.09119 19.0209 8.08949C19.0318 8.08737 19.04 8.07628 19.0376 8.06686C19.0358 8.05983 19.0207 8.04573 19.015 8.04573C19.0134 8.04573 19.012 8.05597 19.012 8.06847Z" fill="#7AF5A7"/>
<path fill-rule="evenodd" clip-rule="evenodd" d="M10.3001 17.8435C14.3431 17.8435 17.6206 14.566 17.6206 10.523C17.6206 6.4801 14.3431 3.20264 10.3001 3.20264C6.2572 3.20264 2.97974 6.4801 2.97974 10.523C2.97974 14.566 6.2572 17.8435 10.3001 17.8435ZM10.3001 8.05484L12.7681 10.5229L10.3001 12.9909L7.8321 10.5229L10.3001 8.05484ZM10.3001 6.64062L11.0072 7.34773L13.4753 9.81575L14.1824 10.5229L13.4753 11.23L11.0072 13.698L10.3001 14.4051L9.59301 13.698L7.12499 11.23L6.41789 10.5229L7.12499 9.81575L9.59301 7.34773L10.3001 6.64062Z" fill="#C4C4C4"/>
</svg>
