<svg width="13" height="13" viewBox="0 0 13 13" fill="none" xmlns="http://www.w3.org/2000/svg">
<path fill-rule="evenodd" clip-rule="evenodd" d="M6.5 13C10.0899 13 13 10.0898 13 6.5C13 2.91016 10.0899 0 6.5 0C2.91015 0 0 2.91016 0 6.5C0 10.0898 2.91015 13 6.5 13ZM6.40067 4.41406L8.43208 6.40088L6.4455 8.43213L4.41409 6.44531L6.40067 4.41406ZM6.38489 3L7.09984 3.69922L9.13126 5.68555L9.84621 6.38477L9.14703 7.1001L7.16046 9.13135L6.46129 9.84619L5.74634 9.14697L3.71492 7.16064L2.99997 6.46143L3.69914 5.74658L5.68571 3.71484L6.38489 3Z" fill="#C4C4C4"/>
</svg>
