<svg width="11" height="15" viewBox="0 0 11 15" fill="none" xmlns="http://www.w3.org/2000/svg">
<path d="M5.8169 3L4.5493 1.75L10 1L9.3662 6.125L8.09859 5.125L6.4507 6.75L8.47887 8.875L5.05634 12.125L6.4507 13.375L1 14L1.76056 8.875L2.90141 10L4.80282 8.375L2.52113 6.125L5.8169 3Z" fill="#7AF5A7"/>
<path d="M4.80282 8.375L2.52113 6.125L5.8169 3L4.5493 1.75L10 1L9.3662 6.125L8.09859 5.125L6.4507 6.75M4.80282 8.375L6.4507 6.75M4.80282 8.375L2.90141 10L1.76056 8.875L1 14L6.4507 13.375L5.05634 12.125L8.47887 8.875L6.4507 6.75" stroke="#45496A" stroke-width="0.5"/>
</svg>
