<svg width="7" height="14" viewBox="0 0 7 14" fill="none" xmlns="http://www.w3.org/2000/svg">
<g clip-path="url(#clip0)">
<path d="M3.5 7.11296C5.433 7.11296 7 5.52067 7 3.55648C7 1.59229 5.433 0 3.5 0C1.567 0 0 1.59229 0 3.55648C0 5.52067 1.567 7.11296 3.5 7.11296Z" fill="#E7E7E7"/>
<path d="M3.5001 5.40688C4.50583 5.40688 5.32113 4.57842 5.32113 3.55647C5.32113 2.53451 4.50583 1.70605 3.5001 1.70605C2.49438 1.70605 1.67908 2.53451 1.67908 3.55647C1.67908 4.57842 2.49438 5.40688 3.5001 5.40688Z" fill="#E7E7E7"/>
<path d="M4.15234 13.3947C4.1187 13.7312 3.84347 13.9906 3.51879 14C3.1806 14.0097 2.88319 13.7455 2.84781 13.3947C2.84781 11.377 2.84781 9.35942 2.84781 7.3418C2.9666 7.39995 3.1859 7.4879 3.47303 7.49307C3.7897 7.49889 4.03096 7.40116 4.15234 7.3418C4.15234 9.35942 4.15234 11.377 4.15234 13.3947Z" fill="#E7E7E7"/>
</g>
<defs>
<clipPath id="clip0">
<rect width="7" height="14" fill="white"/>
</clipPath>
</defs>
</svg>
