<svg width="7" height="14" viewBox="0 0 7 14" fill="none" xmlns="http://www.w3.org/2000/svg">
<g clip-path="url(#clip0)">
<path d="M3.5 7.11296C5.433 7.11296 7 5.52067 7 3.55648C7 1.59229 5.433 0 3.5 0C1.567 0 0 1.59229 0 3.55648C0 5.52067 1.567 7.11296 3.5 7.11296Z" fill="#D6094A"/>
<path d="M3.5001 5.40688C4.50583 5.40688 5.32113 4.57842 5.32113 3.55647C5.32113 2.53451 4.50583 1.70605 3.5001 1.70605C2.49438 1.70605 1.67908 2.53451 1.67908 3.55647C1.67908 4.57842 2.49438 5.40688 3.5001 5.40688Z" fill="#D6094A"/>
<path d="M4.15231 13.3947C4.11867 13.7312 3.84344 13.9906 3.51876 14C3.18057 14.0097 2.88316 13.7455 2.84778 13.3947C2.84778 11.377 2.84778 9.35942 2.84778 7.3418C2.96657 7.39995 3.18587 7.4879 3.473 7.49307C3.78967 7.49889 4.03093 7.40116 4.15231 7.3418C4.15231 9.35942 4.15231 11.377 4.15231 13.3947Z" fill="#D6094A"/>
</g>
<defs>
<clipPath id="clip0">
<rect width="7" height="14" fill="white"/>
</clipPath>
</defs>
</svg>
