<svg width="95" height="129" viewBox="0 0 95 129" fill="none" xmlns="http://www.w3.org/2000/svg">
<path d="M94.6441 24.1084H0V76.4965H94.6441V24.1084Z" fill="#FF6F59"/>
<path d="M47.322 129C54.2858 126.249 68.2902 119.609 80.0478 105.019C88.8212 94.1318 92.7803 83.2421 94.6441 76.4961C63.0964 76.4961 31.5477 76.4961 0 76.4961C1.86378 83.171 5.55069 93.0823 13.1843 103.137C25.1645 118.919 40.0522 126.081 47.322 129Z" fill="#FF6F59"/>
<path d="M47.322 0C39.9979 8.3552 32.9619 11.8997 28.0166 13.6026C16.4747 17.5782 3.08485 16.0852 0.329833 23.0061C0.140066 23.4835 0.0451826 23.8897 0 24.1086C31.5477 24.1086 63.0964 24.1086 94.6441 24.1086C94.5447 23.787 94.3685 23.2849 94.0703 22.7116C90.232 15.3472 77.2476 17.7339 65.9813 13.9693C60.765 12.2259 54.0339 8.5335 47.322 0Z" fill="#FF6F59"/>
</svg>
