<svg width="13" height="13" viewBox="0 0 13 13" fill="none" xmlns="http://www.w3.org/2000/svg">
<path fill-rule="evenodd" clip-rule="evenodd" d="M13 6.5C13 8.04541 12.4607 9.46484 11.56 10.5806L8.61914 7.63965L9.84624 6.38477L6.38492 3L5.19572 4.21631L2.41968 1.43994C3.5352 0.539062 4.95462 0 6.5 0C10.0898 0 13 2.91016 13 6.5ZM4.21692 5.2168L1.43092 2.43115C0.535698 3.54492 0 4.95996 0 6.5C0 10.0898 2.91016 13 6.5 13C8.04019 13 9.45526 12.4639 10.5691 11.5688L7.64047 8.64062L6.46132 9.84619L3 6.46143L4.21692 5.2168Z" fill="#C4C4C4"/>
</svg>
